# xmcd CD database file
#
# Track frame offsets:
#	150
#	13184
#	34697
#	65808
#	72826
#	94032
#	126064
#	142509
#	189274
#	218634
#	229118
#	248581
#
# Disc length: 3635 seconds
#
# Revision: 0
# Processed by: cddbd v1.5.2PL0 Copyright (c) Steve Scherf et al.
# Submitted via: CDex 1.70beta2
#
DISCID=9a0e310c
DTITLE=Zapp String Quartet - Peculiar
DYEAR=2008
DGENRE=Jazz
TTITLE0=Why Nogales?, John Scofield
TTITLE1=Wind Machine, Allan Gilliland
TTITLE2=Gita Minor, Mike Keneally
TTITLE3=DSCH, Zapp String Quartet
TTITLE4=Exteebo, Mark Feldman
TTITLE5=La Blues, Gene Dinovi
TTITLE6=Peculiar, John Scofield
TTITLE7=Undiscovered Rainforest, Brent Fischer
TTITLE8=Picasso and Lump, Oene van Geel
TTITLE9=PTV, Zapp String Quartet
TTITLE10=Open the Windi, Oene van Geel
TTITLE11=Jelly, Jasper le Clercq
EXTD=YEAR: 2008
EXTT0=
EXTT1=
EXTT2=
EXTT3=
EXTT4=
EXTT5=
EXTT6=
EXTT7=
EXTT8=
EXTT9=
EXTT10=
EXTT11=
PLAYORDER=
